<svg width="116" height="128" viewBox="0 0 116 128" fill="none" xmlns="http://www.w3.org/2000/svg">
<rect x="1" y="69" width="58" height="58" rx="4" stroke="#BE2742" stroke-width="2"/>
<rect x="87" y="99" width="28" height="28" rx="4" stroke="#BE2742" stroke-width="2"/>
<circle cx="14" cy="30" r="13" stroke="#BE2742" stroke-width="2"/>
<path d="M96.5 1.44077L99.9474 10.7572L100.027 10.9728L100.243 11.0526L109.559 14.5L100.243 17.9474L100.027 18.0272L99.9474 18.2428L96.5 27.5592L93.0526 18.2428L92.9728 18.0272L92.7572 17.9474L83.4408 14.5L92.7572 11.0526L92.9728 10.9728L93.0526 10.7572L96.5 1.44077Z" fill="#BE2742" stroke="#BE2742"/>
<path d="M106 33L107.891 38.1094L113 40L107.891 41.8906L106 47L104.109 41.8906L99 40L104.109 38.1094L106 33Z" fill="#BE2742"/>
<path d="M55 23.4408L56.4217 27.2829L56.5015 27.4985L56.7171 27.5783L60.5592 29L56.7171 30.4217L56.5015 30.5015L56.4217 30.7171L55 34.5592L53.5783 30.7171L53.4985 30.5015L53.2829 30.4217L49.4408 29L53.2829 27.5783L53.4985 27.4985L53.5783 27.2829L55 23.4408Z" fill="#BE2742" stroke="#BE2742"/>
</svg>
